<svg xmlns="http://www.w3.org/2000/svg" xmlns:xlink="http://www.w3.org/1999/xlink" xmlns:inkscape="http://www.inkscape.org/namespaces/inkscape" version="1.1" width="91.9234" height="49.1546" viewBox="0 0 91.9234 49.1546">
<defs>
<clipPath id="clip_1">
<path transform="matrix(1,0,0,-1,0,49.1546)" d="M0 49.155H91.923V0H0Z"/>
</clipPath>
</defs>
<g inkscape:groupmode="layer" inkscape:label="Layer 1">
<g clip-path="url(#clip_1)">
<path transform="matrix(1,0,0,-1,4.416,45.542398)" d="M0 0H2.582C3.927 0 4.807 .619 4.807 1.902 4.807 3.021 4.085 3.769 2.354 3.769H0ZM2.424 5.077C3.913 5.077 4.498 5.672 4.498 6.675 4.498 7.605 3.826 8.238 2.62 8.238H0V5.077ZM-1.583 9.546H2.701C5.062 9.546 6.117 8.308 6.117 6.822 6.117 5.567 5.406 4.752 4.589 4.458 5.346 4.214 6.467 3.448 6.467 1.885 6.467-.126 4.922-1.308 2.813-1.308H-1.583Z" fill="#9FA0A1"/>
<path transform="matrix(1,0,0,-1,17.4342,40.818399)" d="M0 0H2.291C3.882 0 4.568 .598 4.568 1.759 4.568 2.864 3.847 3.486 2.435 3.486H0ZM0-1.336V-6.032H-1.594V4.822H2.757C5.017 4.822 6.222 3.595 6.222 1.902 6.222 .483 5.416-.357 4.421-.654 5.244-.881 6.022-1.525 6.022-3.42V-3.899C6.022-4.644 5.994-5.567 6.169-6.032H4.614C4.418-5.563 4.421-4.724 4.421-3.679V-3.462C4.421-1.986 4.008-1.336 2.095-1.336Z" fill="#9FA0A1"/>
<path transform="matrix(1,0,0,-1,29.8815,41.3778)" d="M0 0C0-2.301 1.149-4.273 3.409-4.273 5.851-4.273 6.807-2.259 6.807-.01 6.807 2.273 5.724 4.179 3.405 4.179 1.037 4.179 0 2.28 0 0M8.492 .01C8.492-2.979 6.786-5.63 3.342-5.63 .102-5.63-1.685-3.158-1.685-.045-1.685 3.07 .165 5.535 3.472 5.535 6.558 5.535 8.492 3.255 8.492 .01" fill="#9FA0A1"/>
<path transform="matrix(1,0,0,-1,43.3903,35.9964)" d="M0 0H1.601V-5.235C2.393-4.399 5.055-1.724 6.705 0H8.692L4.074-4.567 8.909-10.854H6.958L2.946-5.609 1.601-6.836V-10.854H0Z" fill="#9FA0A1"/>
<path transform="matrix(1,0,0,-1,63.3942,41.8499)" d="M0 0H-5.367V-3.637H.533L.329-5H-6.947V5.854H.256V4.49H-5.367V1.364H0Z" fill="#9FA0A1"/>
<path transform="matrix(1,0,0,-1,70.2396,40.818399)" d="M0 0H2.291C3.882 0 4.568 .598 4.568 1.759 4.568 2.864 3.847 3.486 2.435 3.486H0ZM0-1.336V-6.032H-1.594V4.822H2.757C5.017 4.822 6.222 3.595 6.222 1.902 6.222 .483 5.416-.357 4.421-.654 5.244-.881 6.022-1.525 6.022-3.42V-3.899C6.022-4.644 5.994-5.567 6.169-6.032H4.614C4.418-5.563 4.421-4.724 4.421-3.679V-3.462C4.421-1.986 4.008-1.336 2.095-1.336Z" fill="#9FA0A1"/>
<path transform="matrix(1,0,0,-1,82.4907,43.7976)" d="M0 0C.287-1.262 1.156-1.923 2.673-1.923 4.285-1.923 4.933-1.185 4.933-.203 4.933 .846 4.397 1.413 2.281 1.92-.357 2.556-1.219 3.469-1.219 4.983-1.219 6.647 .018 7.955 2.47 7.955 5.118 7.955 6.197 6.451 6.348 4.997H4.708C4.53 5.906 3.969 6.686 2.417 6.686 1.163 6.686 .452 6.13 .452 5.144 .452 4.175 1.037 3.79 2.915 3.343 6.026 2.591 6.6 1.392 6.6-.028 6.6-1.822 5.262-3.193 2.564-3.193-.175-3.193-1.405-1.727-1.636 0Z" fill="#9FA0A1"/>
<path transform="matrix(1,0,0,-1,16.4731,14.1017)" d="M0 0H-.736C1.607 .488 3.364 2.558 3.364 5.041V5.256C3.364 8.955 .364 11.955-3.339 11.955H-13.641V5.549C-12.541 5.354-11.463 5.223-10.442 4.814-8.278 3.948-7.367 2.512-6.999 .279L-2.232-1.655C-2.036-1.783-2.125-2.213-2.232-2.39-2.761-3.259-3.663-3.738-4.693-3.813-6.727-3.962-7.819-2.775-8.121-3.8-8.209-4.103-8.182-4.491-8.036-4.787L-7.025-6.846C-6.762-7.381-7.825-7.521-8.184-7.622-8.491-7.708-8.183-8.472-8.31-8.638-8.347-8.686-8.498-8.718-8.59-8.727L-9.342-8.799C-9.15-9.179-8.668-9.334-8.662-9.6-8.66-9.681-8.793-9.851-8.876-9.893-9.84-10.386-9.23-11.246-9.65-11.836-9.921-12.216-10.523-12.372-10.981-12.22L-13.603-11.349C-13.616-11.344-13.628-11.345-13.641-11.342V-15.19H-1.004C3.219-15.19 6.645-11.769 6.645-7.546V-6.645C6.645-2.975 3.669 0 0 0" fill="#2C59A7"/>
<path transform="matrix(1,0,0,-1,33.1035,8.541698)" d="M0 0V-6.084H3.839C4.692-6.11 5.388-5.84 5.932-5.27 6.475-4.704 6.745-3.968 6.745-3.062 6.745-2.156 6.475-1.42 5.932-.854 5.388-.285 4.692 0 3.839 0ZM7.211-20.737 2.481-11.976H0V-20.737H-6.938V6.395H3.916C6.679 6.395 9 5.509 10.874 3.741 12.746 1.97 13.684-.27 13.684-2.985 13.684-4.612 13.269-6.104 12.444-7.461 11.616-8.819 10.492-9.897 9.072-10.699L14.652-20.737Z" fill="#2C59A7"/>
<path transform="matrix(1,0,0,-1,0,49.1546)" d="M50.197 47.008H57.135V19.876999H50.197Z" fill="#2C59A7"/>
<path transform="matrix(1,0,0,-1,89.0739,2.1469994)" d="M0 0V-27.131H-6.898V-12.519L-13.488-23.411H-14.184L-20.737-12.556V-27.131H-27.675V0H-20.737L-13.836-11.587-6.898 0Z" fill="#2C59A7"/>
</g>
</g>
</svg>
